<svg xmlns="http://www.w3.org/2000/svg" xmlns:se="http://svg-edit.googlecode.com" xmlns:xlink="http://www.w3.org/1999/xlink" xmlns:dc="http://purl.org/dc/elements/1.1/" xmlns:cc="http://creativecommons.org/ns#" xmlns:rdf="http://www.w3.org/1999/02/22-rdf-syntax-ns#" xmlns:inkscape="http://www.inkscape.org/namespaces/inkscape" width="777" height="480" style="">
                                    <title>my vector image</title>
                                    <!-- Created with Vector Paint - http://www.vectorpaint.yaks.com/ https://chrome.google.com/webstore/detail/hnbpdiengicdefcjecjbnjnoifekhgdo -->
                                    <rect id="backgroundrect" width="100%" height="100%" x="0" y="0" fill="#FFFFFF" stroke="none"/>
                                <g style="" class="currentLayer"><title>Layer 1</title><path fill="#484848" stroke="#919191" stroke-width="2" stroke-linejoin="round" stroke-dashoffset="" fill-rule="nonzero" marker-start="" marker-mid="" marker-end="" id="svg_15" d="M335.5609116443666,348.0618192958445 C329.663224418966,350.1237327165725 325.1159670254017,336.32633292186756 332.42869484689976,334.82541364455335 C338.8635958202034,335.0147724541515 330.8283748560275,325.01858211671123 336.6366574043532,321.6513452350844 C343.31773103169115,311.5035956319904 349.94452908597646,300.92135643822206 354.2262564342035,287.85982496885293 C352.06891182123695,283.4078987424784 348.50844899347254,279.1544242251129 348.9736749707164,273.0626493945693 C353.17313736068814,270.83734280842464 359.42912351871024,272.3455987753322 359.6778799705604,262.0288755270252 C363.49683331291806,243.40825064223344 364.51543495698473,223.7206380228136 365.35256962629114,204.32540151111874 C361.13805265931995,199.12574023327363 352.45933421553235,204.05153946574603 346.56947220634885,201.40306017365094 C337.63434083232363,197.64887446515286 349.9013743895959,190.46129036323714 353.83613987719195,191.05348595391717 C357.37168751185976,191.06174178135933 362.6069417108829,187.67054986960534 356.68930651183086,185.07876168684106 C361.6812355074563,184.72024048051483 368.8610875721031,174.86551530558202 360.65193483125427,171.31325269277863 C366.73803364713365,164.51282258243984 362.0483246256578,149.71409596304224 359.50714366628546,141.20347858351056 C355.6762679426188,130.92649163390197 349.37683179704567,123.4834692764787 342.2566812808506,119.51452536878438 C341.1039067079601,109.03471259880828 352.08260594959745,112.13216610925079 356.5356390922261,111.5883155279895 C363.2784443948517,111.98859185364307 370.1540410854354,111.46290245144243 376.0287166912089,105.74927077894293 C383.9661329989249,100.03367773194111 390.71391606711364,109.57272829605466 397.9748308330613,111.58916901313333 C405.3191811758519,112.32529174269672 412.95892815737454,109.53278683266257 420.1101053394513,112.77114745764035 C422.32589124029636,115.22418685849522 426.0095379466279,119.09870576561727 421.57315184414193,120.95814624926132 C413.1004622734132,128.29815130855377 405.1879822510296,139.1414256507851 403.06405299865406,154.54446899121203 C399.8598273383098,163.11277868380472 405.54001679224586,170.5477093455304 400.3464197414829,176.69246590765943 C400.2923761829316,183.92214980558356 412.3986975167943,184.93243001769557 405.6215593417132,188.49253812854658 C410.26614681663466,192.41152853559356 420.22720938359294,189.93962218912094 421.24364907439417,198.64375911832622 C417.02724962615923,203.80594911574383 411.1145289159877,201.76872931805377 406.0624818004322,202.25065298688867 C404.3493183952596,203.15917150883286 400.0442577709424,200.03384842581755 400.6996143551806,204.62844618313125 C400.36393156292917,225.2169287845395 403.7997656945748,245.46049670239125 407.1225138513342,265.2194984300926 C407.1267533889469,274.9000551896545 422.46445662537445,269.4112347865652 413.9391894058595,280.3983788215665 C407.64185720992657,288.83594936205236 416.8746209987376,300.6559471783985 420.0731886691975,308.1611508524648 C424.4239825146348,316.39417218912223 432.14696469684355,320.5614775333611 431.50237042143124,332.64649069330943 C435.9342058759537,333.1430467084025 441.20567015563296,343.882089177501 435.07819366349065,346.55789640736066 C401.9158343467916,347.6407228566496 368.7285545639268,348.3861436503222 335.56089582519303,348.0618192958445 L335.5609116443666,348.0618192958445 z" style="color: rgb(0, 0, 0);" class="selected"/></g></svg>