<svg xmlns="http://www.w3.org/2000/svg" xmlns:se="http://svg-edit.googlecode.com" xmlns:xlink="http://www.w3.org/1999/xlink" xmlns:dc="http://purl.org/dc/elements/1.1/" xmlns:cc="http://creativecommons.org/ns#" xmlns:rdf="http://www.w3.org/1999/02/22-rdf-syntax-ns#" xmlns:inkscape="http://www.inkscape.org/namespaces/inkscape" width="777" height="480">
                                    <title>my vector image</title>
                                    <!-- Created with Vector Paint - http://www.vectorpaint.yaks.com/ https://chrome.google.com/webstore/detail/hnbpdiengicdefcjecjbnjnoifekhgdo -->
                                    <rect id="backgroundrect" width="100%" height="100%" x="0" y="0" fill="#FFFFFF" stroke="none"/>
                                <g style="" class="currentLayer"><title>Layer 1</title><path fill="#484848" stroke="#919191" stroke-width="2" stroke-linejoin="round" stroke-dashoffset="" fill-rule="nonzero" marker-start="" marker-mid="" marker-end="" id="svg_1" d="M358.33720266947256,362.5284270481509 C352.259994912806,362.8094957606531 343.3655386474987,358.5390166038249 349.57931436711937,349.012848107632 C356.3444170963533,345.38619966359767 348.37692541478833,333.36573468641393 355.15672745308376,327.7034067562931 C360.5986744188591,317.16484912746415 367.99451554035363,307.5410307226596 370.22641915731646,294.6715137871276 C369.879810902359,285.9434068712066 362.2192429737013,280.77799841278994 365.8740070168496,271.11726076765586 C362.28838663470975,255.65765822492784 363.11704504846676,237.8635477152102 369.6623361986942,223.96665658518526 C375.22017644024237,211.05925708390822 381.9680734707972,197.38288513620338 381.2564101755753,181.7631482703169 C374.2858016611528,185.7218722720232 366.90734180669125,189.19030481016426 359.2358583696859,187.3924925972491 C352.02356488100554,186.48153257288666 345.555196886082,194.4240846717188 338.1983622095448,190.10539807685942 C330.7409026499445,187.99825960620075 326.30511370365633,174.43730556903438 331.8654300644076,166.5100761076316 C337.94178419562274,159.45124744819867 346.8694955287838,159.22407555709026 352.66452256227666,151.34623916499652 C360.3104153981941,142.73241392963791 367.38248425889464,131.08179180616108 377.92042983033616,129.5589884125883 C382.57796766159623,128.1088049341875 384.57564493230996,121.74372700406735 387.15379961343984,116.97367717227954 C389.2963026138124,124.53906679103355 393.0226743289987,131.22885948471085 398.63113274318886,134.5827715693136 C410.0359561427949,143.56705717465263 412.87493274874384,162.5609194915712 417.080715043358,178.1748434708357 C420.19041805091126,190.40313972906506 422.7811894371828,203.17037126708402 427.98855286592084,214.08720290528836 C428.0439174381834,219.3265651140589 422.1987747207959,221.54110201707823 426.14675002300527,227.68328126878947 C428.2000098129123,244.34181226367798 428.28839334386424,261.4002550386195 428.1063713395003,278.25346833445127 C424.64340664178957,286.5009417414989 421.48909111012375,295.70630641059324 426.1085669330855,305.171373728725 C429.1942655088166,316.74030256441586 436.87908003255166,324.3279227694335 440.6599324241554,335.2449520128617 C442.79716837392505,340.8977784257426 436.4933563591877,349.10464396186086 444.3474187760118,347.6829979694059 C451.52002170856207,352.8438697415059 445.7283607441956,365.4412925345593 438.59463712089286,361.7764733505322 C411.8608196666058,362.7010104996213 385.0681202188903,363.624222047081 358.337196615398,362.5284435152549 L358.33720266947256,362.5284270481509 z" style="color: rgb(0, 0, 0);" class="selected"/></g></svg>