<svg xmlns="http://www.w3.org/2000/svg" xmlns:se="http://svg-edit.googlecode.com" xmlns:xlink="http://www.w3.org/1999/xlink" xmlns:dc="http://purl.org/dc/elements/1.1/" xmlns:cc="http://creativecommons.org/ns#" xmlns:rdf="http://www.w3.org/1999/02/22-rdf-syntax-ns#" xmlns:inkscape="http://www.inkscape.org/namespaces/inkscape" width="777" height="480" style="">                                    <title>my vector image</title>                                    <!-- Created with Vector Paint - http://www.vectorpaint.yaks.com/ https://chrome.google.com/webstore/detail/hnbpdiengicdefcjecjbnjnoifekhgdo -->                                    <rect id="backgroundrect" width="100%" height="100%" x="0" y="0" fill="#FFFFFF" stroke="none"/>                                <g class="currentLayer" style=""><title>Layer 1</title><path fill="#484848" stroke="#919191" stroke-width="2" stroke-linejoin="round" stroke-dashoffset="" fill-rule="nonzero" marker-start="" marker-mid="" marker-end="" id="svg_7" d="M360.680149978239,335.18225577819476 C355.48146436702103,328.159641870216 368.82303197771756,327.9716658227596 366.7270121211737,320.1869635176344 C370.5592597217157,309.87119537277107 380.52350364539865,303.62710008517666 381.9908957522576,291.90480209564987 C377.94960523504875,288.6468384637922 375.62532567077176,280.7675897902325 383.33542777911634,281.7030181592247 C388.9895455484144,276.77812760592127 388.28289904238375,266.69994629586023 389.98327302791984,259.3040156799138 C391.5761243388153,247.3668219839858 391.9368364383559,235.2847117835214 392.62100438131006,223.24944298069067 C386.0788418331666,222.66796048103924 379.37485164446343,223.0729986123265 373.0003325986859,221.13318258213002 C373.18369308145526,213.12922948198297 386.15433866716825,216.2003635341535 386.7446808046741,208.64769439527765 C396.17555744908094,208.45048704884562 387.26705327442255,192.15052934982486 383.42644858929,188.26162876746162 C378.51051422251527,181.70128704436252 375.2362483781321,171.3451021881589 378.9734027785992,163.243185650033 C384.31875232886875,159.1334485737419 396.4050266501707,161.6350784811047 395.85872808536,150.83476392034086 C392.2234413345899,148.43689679115667 387.6078988018867,149.95963677842272 383.533443718919,149.53557770450476 C383.7840147193541,144.49938299732253 384.0345792863167,139.46319573471098 384.28515028677316,134.4270010275048 C389.6735590879647,133.94739037869775 395.0619807561252,133.46774250691718 400.4503895573368,132.98808719052295 C397.71530685394157,129.69872225296717 393.621950220211,127.27793321288468 392.5976379985953,122.62495652628351 C396.0817380771277,115.99743476942723 404.47866515378826,116.58247578592602 410.4941255031931,116.64513694997922 C416.34348638439195,116.17826400478867 427.00833578066045,120.69312854754511 419.03529753213155,127.96532997897265 C418.3890742271937,129.75119176514025 412.0998566319205,134.19163268227345 415.98650570059164,133.70754038671723 C420.96289543583305,133.70754038671723 425.9392723041083,133.70754038671723 430.91564917238173,133.70754038671723 C430.90134755655475,138.63087501946998 430.7869732306334,143.6031355367432 431.7861755976867,148.42121102750835 C427.9875429061518,151.694771087877 415.6695991351575,145.62493145743434 419.1769111929449,155.7254688890845 C423.1261193765521,159.94840849122554 429.17448051925004,159.83696289002233 434.1835137087516,161.6967644030674 C437.10519936652383,162.0345331654164 439.42940172908936,162.91554153812012 438.37653131014036,166.86746062508584 C438.92568633803876,174.20482460482313 437.32589974062336,181.58579158294546 432.96741958504964,187.15560003789454 C429.88213708097254,192.9675439758157 422.95264071201603,200.24343048224475 425.0039993822464,206.97081404905128 C428.88508992816406,206.239762172373 432.00279071487813,209.18859640245898 428.9028913546514,212.5047991083544 C432.0841098441208,215.23042201837 443.28639247611517,214.6062447610051 440.8634877337302,221.42993906547025 C435.18784355571665,223.60397697312743 429.09076813716956,222.69824509734747 423.20236249369844,222.9200940563153 C424.77021975262767,241.54637631752723 426.93806292872335,260.1744229479813 430.56038622653074,278.41438279208637 C432.67686453490546,282.46180115579045 441.08431677733466,285.57253301374783 434.1844208287917,290.8490616116632 C431.6093836932849,300.6753252396952 439.834189568678,308.03284918523747 444.9997170476477,314.339583303038 C450.67916984313075,319.26177146802354 447.9236158209732,329.1656375641271 455.95837039918,330.7451872630419 C462.28609234478205,337.8382047148335 447.270862538459,337.64936509423234 443.41587260231364,337.6648349645698 C417.89538862429055,337.9832626667126 392.3473758049851,338.42876217693083 366.83687658082056,337.47714925635034 C364.7485382939023,337.17216649448085 362.1684573136705,337.2419372476104 360.68015641171473,335.18224833359926 L360.680149978239,335.18225577819476 z" style="color: rgb(0, 0, 0);" class="selected" fill-opacity="1"/></g></svg>