<svg xmlns="http://www.w3.org/2000/svg" xmlns:se="http://svg-edit.googlecode.com" xmlns:xlink="http://www.w3.org/1999/xlink" xmlns:dc="http://purl.org/dc/elements/1.1/" xmlns:cc="http://creativecommons.org/ns#" xmlns:rdf="http://www.w3.org/1999/02/22-rdf-syntax-ns#" xmlns:inkscape="http://www.inkscape.org/namespaces/inkscape" width="777" height="480" style="">                                    <title>my vector image</title>                                    <!-- Created with Vector Paint - http://www.vectorpaint.yaks.com/ https://chrome.google.com/webstore/detail/hnbpdiengicdefcjecjbnjnoifekhgdo -->                                    <rect id="backgroundrect" width="100%" height="100%" x="0" y="0" fill="#FFFFFF" stroke="none"/>                                <g class="currentLayer" style=""><title>Layer 1</title><path fill="#484848" stroke="#919191" stroke-width="2" stroke-linejoin="round" stroke-dashoffset="" fill-rule="nonzero" marker-start="" marker-mid="" marker-end="" id="svg_4" d="M344.43126630281495,368.5210414575679 C344.7245439881233,359.62787709427175 358.02936949659306,364.0120875240714 350.7047682135403,355.34798623726647 C353.14800049830274,344.6604039099948 360.73445229588333,337.54270019179376 365.3199151546055,328.3746728111537 C368.83513999818933,320.5697164914145 376.7535299428796,311.16383541508617 372.9246316843755,301.5135189951543 C365.89287113131786,296.45586203414655 367.8883452208179,285.2103696147865 376.48910475319644,287.68016243321813 C382.01974901580934,280.81061490775755 382.40057910151654,269.3357244449719 384.27205871728574,259.9823154890937 C385.97076620138205,248.787412132707 387.0102694518805,237.3896636537404 386.7391622070504,225.9518458847349 C376.6576081675803,225.9849895067 366.3865634137924,225.33445652567957 356.66333962247745,221.65224629648492 C358.5468859273451,211.50860503410127 370.6872389651285,213.68855185393454 375.66137693805285,207.45705300067175 C371.0395190627578,201.85922108972386 385.00520923500017,202.41900518614102 381.350904875751,193.5652311258077 C381.10014630382193,183.42539219100058 375.168424118423,180.49124464494776 370.4163670039138,173.09816187924434 C364.0679373402122,161.54513358493796 374.02073073181236,150.00154773742656 379.54848436697193,142.19099656426283 C385.7099979915479,133.7021010998567 392.7569511448155,124.65759504620974 394.6428637307745,112.65106676417236 C392.10549110392276,109.8431836528398 386.30931917974203,105.82281975862952 392.22370432270964,101.9843791322105 C400.30130061716136,100.14022310240011 408.9187518425956,99.91554175579154 416.8351654048083,102.94088179134974 C422.08968079765464,109.83563331666824 408.8150522626561,110.2116473004753 414.52658258108295,118.90490881848723 C421.2985362260165,129.83366735144614 412.16840196785597,135.4737684705326 406.7776573524475,141.79101886360922 C403.6398946774807,147.1289526321484 394.274584346203,154.16840082776343 395.8858806000121,159.70130346891597 C405.0550047170909,159.2707894566372 410.3975699671996,147.3167966671699 416.93781629198156,140.23968732232902 C424.1112848150283,127.84855360682423 431.0511099697351,147.8723348311221 435.63830720495844,154.67688971465327 C441.28943013158096,164.989290948899 437.39065935698136,178.8496078239234 428.87856814166116,183.27842317734712 C424.6569008337292,189.1333648571606 421.8538593751359,205.81096202449703 431.9552310187696,203.32806928227797 C437.82143007403465,206.19969569933414 426.22117397325246,206.50908747224753 432.8802855886006,209.16373678258378 C437.3056211302073,211.4522581608087 454.56551070272235,216.68287576033572 445.0573563176463,223.6983149733021 C436.9873227113221,226.1550531337448 428.65121020748893,226.05367583826524 420.45327641916765,225.06157615056895 C419.94772584166594,241.83234844963 421.72706166502394,258.53694214269376 425.39723086340746,274.5785638116929 C426.3082020272982,279.1424704316962 427.21917991358623,283.70635894539214 428.1301577998861,288.2702112464351 C432.5140229208605,288.153425471143 441.5653438848931,286.8625895808816 437.38232359403946,296.583828463127 C428.5827561155502,303.11955878761637 433.9680892074289,316.8737997766559 438.84604323188796,324.69793974429194 C444.89246954876444,334.99312186656834 453.9097953892724,344.63108072191085 454.296030276123,358.7262275368985 C456.7143023287963,360.6672614412307 464.7624276678421,365.9996727816342 462.4344574728957,370.17435685612804 C423.9100635310915,369.90846552122207 385.3635394831663,370.9429430549719 346.85876819622695,369.0422953013017 L345.52167820876,368.8771113279663 L344.4312730252152,368.52098713861983 L344.4312730252152,368.52098713861983 L344.43126630281495,368.5210414575679 z" style="color: rgb(0, 0, 0);" class="selected" opacity="1" fill-opacity="1" stroke-opacity="1" stroke-dasharray="none"/></g></svg>