<svg xmlns="http://www.w3.org/2000/svg" xmlns:se="http://svg-edit.googlecode.com" xmlns:xlink="http://www.w3.org/1999/xlink" xmlns:dc="http://purl.org/dc/elements/1.1/" xmlns:cc="http://creativecommons.org/ns#" xmlns:rdf="http://www.w3.org/1999/02/22-rdf-syntax-ns#" xmlns:inkscape="http://www.inkscape.org/namespaces/inkscape" width="777" height="480" style="">                                    <title>my vector image</title>                                    <!-- Created with Vector Paint - http://www.vectorpaint.yaks.com/ https://chrome.google.com/webstore/detail/hnbpdiengicdefcjecjbnjnoifekhgdo -->                                    <rect id="backgroundrect" width="100%" height="100%" x="0" y="0" fill="#FFFFFF" stroke="none"/>                                <g class="currentLayer" style=""><title>Layer 1</title><path fill="#ffffff" stroke="#919191" stroke-width="2" stroke-linejoin="round" stroke-dashoffset="" fill-rule="nonzero" marker-start="" marker-mid="" marker-end="" id="svg_4" d="M343.773371572247,369.1789361881358 C344.06664925755535,360.2857718248397 357.37147476602513,364.6699822546393 350.0468734829724,356.0058809678344 C352.4901057677348,345.3182986405627 360.0765575653154,338.2005949223617 364.66202042403756,329.0325675417216 C368.1772452676214,321.22761122198244 376.09563521231166,311.8217301456541 372.2667369538076,302.17141372572223 C365.23497640074993,297.1137567647145 367.23045049024995,285.8682643453544 375.8312100226285,288.33805716378606 C381.3618542852414,281.4685096383255 381.7426843709486,269.99361917553983 383.6141639867178,260.64021021966164 C385.3128714708141,249.44530686327494 386.3523747213126,238.04755838430833 386.0812674764825,226.60974061530283 C375.99971343701236,226.64288423726794 365.72866868322444,225.9923512562475 356.0054448919095,222.31014102705285 C357.88899119677717,212.1664997646692 370.02934423456054,214.34644658450247 375.0034822074849,208.11494773123968 C370.38162433218986,202.5171158202918 384.34731450443223,203.07689991670895 380.69301014518305,194.22312585637565 C380.442251573254,184.08328692156852 374.51052938785506,181.1491393755157 369.7584722733459,173.75605660981228 C363.4100426096443,162.2030283155059 373.36283600124443,150.6594424679945 378.890589636404,142.84889129483076 C385.05210326097995,134.35999583042462 392.09905641424757,125.31548977677767 393.98496900020655,113.30896149474029 C391.4475963733548,110.50107838340773 385.6514244491741,106.48071448919745 391.5658095921417,102.64227386277844 C399.6434058865934,100.79811783296805 408.2608571120277,100.57343648635947 416.1772706742404,103.59877652191767 C421.4317860670867,110.49352804723617 408.15715753208815,110.86954203104324 413.868687850515,119.56280354905516 C420.64064149544856,130.49156208201407 411.51050723728804,136.13166320110054 406.11976262187954,142.44891359417716 C402.98199994691277,147.78684736271634 393.6166896156351,154.82629555833137 395.2279858694442,160.3591981994839 C404.397109986523,159.92868418720514 409.7396752366317,147.97469139773784 416.27992156141363,140.89758205289695 C423.45339008446035,128.50644833739216 430.39321523916715,148.53022956169002 434.9804124743905,155.3347844452212 C440.631535401013,165.64718567946693 436.7327646264134,179.50750255449134 428.22067341109323,183.93631790791505 C423.99900610316126,189.79125958772852 421.195964644568,206.46885675506496 431.2973362882017,203.9859640128459 C437.1635353434667,206.85759042990207 425.56327924268453,207.16698220281546 432.22239085803267,209.82163151315171 C436.6477263996394,212.11015289137663 453.9076159721544,217.34077049090365 444.39946158707835,224.35620970387004 C436.3294279807542,226.81294786431272 427.993315476921,226.71157056883317 419.7953816885997,225.71947088113689 C419.289831111098,242.49024318019792 421.069166934456,259.1948368732617 424.7393361328395,275.23645854226083 C425.65030729673026,279.80036516226414 426.5612851830183,284.3642536759601 427.47226306931816,288.92810597700304 C431.85612819029257,288.81132020171094 440.90744915432515,287.52048431144954 436.72442886347153,297.24172319369495 C427.92486138498225,303.7774535181843 433.31019447686094,317.53169450722385 438.18814850132003,325.3558344748599 C444.2345748181965,335.6510165971363 453.25190065870447,345.2889754524788 453.6381355455551,359.3841222674664 C456.05640759822836,361.32515617179865 464.10453293727414,366.65756751220215 461.77656274232777,370.832251586696 C423.2521688005236,370.56636025179 384.70564475259835,371.60083778553985 346.200873465659,369.7001900318696 L344.8637834781921,369.53500605853424 L343.7733782946473,369.17888186918776 L343.7733782946473,369.17888186918776 L343.773371572247,369.1789361881358 z" style="color: rgb(0, 0, 0);" class="selected" opacity="1" fill-opacity="1" stroke-opacity="1" stroke-dasharray="none"/></g></svg>