<svg xmlns="http://www.w3.org/2000/svg" xmlns:se="http://svg-edit.googlecode.com" xmlns:xlink="http://www.w3.org/1999/xlink" xmlns:dc="http://purl.org/dc/elements/1.1/" xmlns:cc="http://creativecommons.org/ns#" xmlns:rdf="http://www.w3.org/1999/02/22-rdf-syntax-ns#" xmlns:inkscape="http://www.inkscape.org/namespaces/inkscape" width="777" height="480" style="">
                                    <title>my vector image</title>
                                    <!-- Created with Vector Paint - http://www.vectorpaint.yaks.com/ https://chrome.google.com/webstore/detail/hnbpdiengicdefcjecjbnjnoifekhgdo -->
                                    <rect id="backgroundrect" width="100%" height="100%" x="0" y="0" fill="#FFFFFF" stroke="none"/>
                                <g style="" class="currentLayer"><title>Layer 1</title><path fill="#ffffff" stroke="#919191" stroke-width="2" stroke-linejoin="round" stroke-dashoffset="" fill-rule="nonzero" marker-start="" marker-mid="" marker-end="" id="svg_20" d="M352.0087804956441,352.60819009694615 C342.09495792636443,354.90387656782264 341.9037865017399,336.7962971480683 350.8062731060851,336.2184406789775 C348.13771159623826,328.4496153943045 350.18024004768205,318.9182081572613 354.12430675450867,311.7281971148312 C359.7804426426058,299.71584613475244 368.2869930016123,287.77589482361253 366.5294621680751,272.7376511206699 C365.9210242999407,264.914081118847 358.20605423713386,250.88703834815385 370.1664261081953,252.89580790810686 C373.40017434881344,245.09396339397625 371.51952164780255,233.60768528117518 373.94481853614593,224.6463765506756 C376.0627458715058,207.65879311193675 380.7767831859739,189.53217795075614 375.7624398028509,172.69027979005696 C372.60099064368535,163.7251798741627 364.5676619740623,157.82413195985086 365.4299025216957,146.864461471004 C364.52189542320303,136.17703800094534 364.82234758910727,125.40811601699392 365.81391596122756,114.75198778471722 C369.6743007053922,115.15884183874857 373.97020134491737,113.73073023436075 377.48997623623313,115.92925061884802 C377.4635961549431,126.27404670623596 385.28388962921974,123.98231104961522 384.3460659880988,115.19107888679682 C386.40337566977354,114.16745084788812 389.808940625723,115.04411657788202 392.38535288459633,114.75198778471722 C403.83973281842776,114.75198778471722 415.2941762728068,114.75198778471722 426.74855620663175,114.75198778471722 C425.43805754281993,120.74951538132868 428.9841616989926,128.47965461205584 433.4745558875145,121.41866359480244 C432.2462019892205,112.03833709123069 442.5320199113861,115.14258363947783 440.0670607963307,123.21204593549231 C440.21223699615075,133.90330847960493 441.2551553748008,144.96469447732434 438.86524578067815,155.3752895803354 C434.97278951461726,159.53250395175377 434.91141596647765,167.71456046336874 430.035020145453,172.617066013938 C426.11638706383496,181.8089426681773 427.84327558768064,192.9163177401358 428.2790582693168,202.9008953446081 C429.938716651007,217.67744349633062 432.678973797145,232.2699794809992 433.3621054711749,247.21648447875657 C432.8734864023104,255.3425990567855 446.18657268972333,252.95094371595803 440.44619585818555,262.9530565505779 C434.17251325616087,269.66665526372844 437.84477556173556,281.00443064912804 440.32923548333247,289.021814029937 C445.23248778972413,302.87921921231833 455.56793431172184,315.32671846166227 454.0079396611659,331.5790673393603 C452.7709215608851,338.67940687032257 463.00637404492227,336.278708554641 460.34575260288034,345.4218584997113 C460.26856879171874,356.690626329427 446.94182558766806,349.4464133079693 441.0385185647,351.81334213855604 C411.3651512304432,352.2655387699478 381.68254800931476,352.963819250167 352.0087614394807,352.6081741340594 L352.0087804956441,352.60819009694615 z" style="color: rgb(0, 0, 0);" class="selected"/></g></svg>