<svg xmlns="http://www.w3.org/2000/svg" xmlns:se="http://svg-edit.googlecode.com" xmlns:xlink="http://www.w3.org/1999/xlink" xmlns:dc="http://purl.org/dc/elements/1.1/" xmlns:cc="http://creativecommons.org/ns#" xmlns:rdf="http://www.w3.org/1999/02/22-rdf-syntax-ns#" xmlns:inkscape="http://www.inkscape.org/namespaces/inkscape" width="777" height="480" style="">
                                    <title>my vector image</title>
                                    <!-- Created with Vector Paint - http://www.vectorpaint.yaks.com/ https://chrome.google.com/webstore/detail/hnbpdiengicdefcjecjbnjnoifekhgdo -->
                                    <rect id="backgroundrect" width="100%" height="100%" x="0" y="0" fill="#FFFFFF" stroke="none"/>
                                <g style="" class="currentLayer"><title>Layer 1</title><path fill="#ffffff" stroke="#919191" stroke-width="2" stroke-linejoin="round" stroke-dashoffset="" fill-rule="nonzero" marker-start="" marker-mid="" marker-end="" id="svg_10" d="M379.099066306731,285.68140203033175 C375.92136507025725,286.16493435254193 371.3559482133299,283.14655108083696 375.3789022840876,280.40346806638183 C378.7833345479024,278.61961146062214 375.5164722455068,273.9744388156221 379.11655183453917,271.71812506364876 C382.7772257353252,266.7205313032048 386.6744776172611,261.61187721459623 388.498744548363,255.6157418344951 C388.24420003613955,252.74311465539031 382.5545091189623,247.98799192248123 388.31874646800605,247.05627950607538 C393.07172434983534,247.60882218474168 391.3333452422536,240.49290513345704 392.97609545373433,237.4096559989114 C393.96390071730207,232.72972103556958 394.6819387738465,227.9717576606911 394.50469663048244,223.17840878083578 C391.19465596505165,223.08597749769393 387.81686341712657,223.47137002620892 384.57179449575966,222.68437909158774 C382.5018528738094,219.9673700847742 389.2484259649142,218.6145559408503 390.3616672016581,216.16209873449014 C392.6974705260593,212.6372462423326 386.9422784586964,208.7427170204365 389.40588949567785,204.5759127191092 C390.9794901925229,198.2682505773517 398.2592992774451,194.17881822397766 404.41906350070497,196.48938248981355 C410.79764791129884,198.14352552096912 415.5127505668121,205.67844785154153 412.48104441197967,211.94609596625554 C412.2390029596946,213.15526861688105 410.34466383472494,214.72308517372758 410.9773313731639,215.68602952596117 C413.7392793965091,217.60278521858334 416.93719487118375,219.2731976560575 418.68708175519254,222.23284105000886 C416.20950044703017,224.02927029479736 412.0638330631468,222.66117597770074 408.9725702325462,223.5145302381817 C406.16022879706026,226.00907069320903 408.9382253887453,231.10956890241715 409.08228133140466,234.5320342512207 C409.9596101261228,238.44240935454224 410.7341403533071,242.3872624094931 411.73954005107703,246.26201604397093 C413.85310171202883,247.08645262966402 418.1942984392083,248.04110799466443 415.8129117353984,251.46594810805772 C412.41800575654537,254.22198190876057 414.0798176134731,258.61183257083684 415.995121220744,261.70455656232 C418.3789492430521,266.4806861300154 422.47102257666023,270.1292593195221 424.9779178579102,274.7950697276151 C425.9088739798653,276.9491687713699 422.5808456070998,280.7642295970799 426.72861246440175,279.87210163246453 C431.2252488783848,280.8272833784052 428.5344560625623,287.0622262956999 424.4937623490666,285.58911293054365 C409.60563104409897,286.11333994480333 394.68692124171855,286.32614002827256 379.79843599094045,285.7462799938837 L379.0990602563725,285.6813959799749 L379.0990602563725,285.6813959799749 L379.099066306731,285.68140203033175 z" style="color: rgb(0, 0, 0);"/></g></svg>