<svg xmlns="http://www.w3.org/2000/svg" xmlns:se="http://svg-edit.googlecode.com" xmlns:xlink="http://www.w3.org/1999/xlink" xmlns:dc="http://purl.org/dc/elements/1.1/" xmlns:cc="http://creativecommons.org/ns#" xmlns:rdf="http://www.w3.org/1999/02/22-rdf-syntax-ns#" xmlns:inkscape="http://www.inkscape.org/namespaces/inkscape" width="777" height="480" style="">
                                    <title>my vector image</title>
                                    <!-- Created with Vector Paint - http://www.vectorpaint.yaks.com/ https://chrome.google.com/webstore/detail/hnbpdiengicdefcjecjbnjnoifekhgdo -->
                                    <rect id="backgroundrect" width="100%" height="100%" x="0" y="0" fill="#FFFFFF" stroke="none"/>
                                <g style="" class="currentLayer"><title>Layer 1</title><path fill="#ffffff" stroke="#919191" stroke-width="2" stroke-linejoin="round" stroke-dashoffset="" fill-rule="nonzero" marker-start="" marker-mid="" marker-end="" id="svg_15" d="M335.5609116443666,348.7197140264124 C329.663224418966,350.7816274471404 325.1159670254017,336.9842276524355 332.42869484689976,335.4833083751213 C338.8635958202034,335.67266718471944 330.8283748560275,325.67647684727916 336.6366574043532,322.30923996565235 C343.31773103169115,312.1614903625583 349.94452908597646,301.57925116879 354.2262564342035,288.51771969942087 C352.06891182123695,284.0657934730463 348.50844899347254,279.81231895568084 348.9736749707164,273.7205441251372 C353.17313736068814,271.49523753899257 359.42912351871024,273.0034935059001 359.6778799705604,262.68677025759314 C363.49683331291806,244.06614537280137 364.51543495698473,224.37853275338153 365.35256962629114,204.98329624168667 C361.13805265931995,199.78363496384156 352.45933421553235,204.70943419631396 346.56947220634885,202.06095490421887 C337.63434083232363,198.3067691957208 349.9013743895959,191.11918509380507 353.83613987719195,191.7113806844851 C357.37168751185976,191.71963651192726 362.6069417108829,188.32844460017327 356.68930651183086,185.736656417409 C361.6812355074563,185.37813521108276 368.8610875721031,175.52341003614995 360.65193483125427,171.97114742334657 C366.73803364713365,165.17071731300777 362.0483246256578,150.37199069361017 359.50714366628546,141.8613733140785 C355.6762679426188,131.5843863644699 349.37683179704567,124.14136400704663 342.2566812808506,120.17242009935231 C341.1039067079601,109.69260732937622 352.08260594959745,112.79006083981872 356.5356390922261,112.24621025855743 C363.2784443948517,112.646486584211 370.1540410854354,112.12079718201036 376.0287166912089,106.40716550951086 C383.9661329989249,100.69157246250904 390.71391606711364,110.2306230266226 397.9748308330613,112.24706374370126 C405.3191811758519,112.98318647326465 412.95892815737454,110.1906815632305 420.1101053394513,113.42904218820829 C422.32589124029636,115.88208158906315 426.0095379466279,119.7566004961852 421.57315184414193,121.61604097982925 C413.1004622734132,128.9560460391217 405.1879822510296,139.79932038135303 403.06405299865406,155.20236372177996 C399.8598273383098,163.77067341437265 405.54001679224586,171.20560407609833 400.3464197414829,177.35036063822736 C400.2923761829316,184.5800445361515 412.3986975167943,185.5903247482635 405.6215593417132,189.15043285911452 C410.26614681663466,193.0694232661615 420.22720938359294,190.59751691968887 421.24364907439417,199.30165384889415 C417.02724962615923,204.46384384631176 411.1145289159877,202.4266240486217 406.0624818004322,202.9085477174566 C404.3493183952596,203.8170662394008 400.0442577709424,200.69174315638548 400.6996143551806,205.28634091369918 C400.36393156292917,225.87482351510744 403.7997656945748,246.11839143295919 407.1225138513342,265.8773931606605 C407.1267533889469,275.5579499202224 422.46445662537445,270.06912951713315 413.9391894058595,281.0562735521344 C407.64185720992657,289.4938440926203 416.8746209987376,301.3138419089664 420.0731886691975,308.81904558303273 C424.4239825146348,317.05206691969016 432.14696469684355,321.219372263929 431.50237042143124,333.30438542387736 C435.9342058759537,333.8009414389704 441.20567015563296,344.5399839080689 435.07819366349065,347.2157911379286 C401.9158343467916,348.2986175872175 368.7285545639268,349.04403838089013 335.56089582519303,348.7197140264124 L335.5609116443666,348.7197140264124 z" style="color: rgb(0, 0, 0);" class="selected" fill-opacity="1"/></g></svg>