<svg xmlns="http://www.w3.org/2000/svg" xmlns:xlink="http://www.w3.org/1999/xlink" version="1.1" style="enable-background:new 0 0 298 298;" xml:space="preserve" width="298" height="298"><rect id="backgroundrect" width="100%" height="100%" x="0" y="0" fill="none" stroke="none"/>
















<g class="currentLayer" style=""><title>Layer 1</title><g id="svg_1" class="selected" fill="#ffffff" fill-opacity="1">
	<path d="M217.60327210235596,246.538 c3.457,-6.556 9.963000000000001,-22.777 -1.6660000000000001,-39.137 C201.18827210235597,186.65 180.62227210235596,125 194.29027210235597,83 H207.68027210235596 V0 h-16 v17 h-16 V0 h-18 v17 h-16 V0 h-17 v17 h-16 V0 H91.68027210235596 v83 h14.057 c13.668,42 -6.98,103.65 -21.73,124.401 c-11.629,16.359 -5.373,32.706 -1.916,39.262 C78.02727210235595,247.044 74.68027210235596,250.337 74.68027210235596,254.5 v18 c0,4.418 3.915,8.5 8.333,8.5 H83.68027210235596 v17 h132 v-17 h1.3330000000000002 c4.418,0 7.667,-4.082 7.667,-8.5 v-18 C224.68027210235596,250.338 221.66627210235595,246.92 217.60327210235596,246.538 z" id="svg_2" fill="#ffffff" fill-opacity="1"/>
</g><g id="svg_3">
</g><g id="svg_4">
</g><g id="svg_5">
</g><g id="svg_6">
</g><g id="svg_7">
</g><g id="svg_8">
</g><g id="svg_9">
</g><g id="svg_10">
</g><g id="svg_11">
</g><g id="svg_12">
</g><g id="svg_13">
</g><g id="svg_14">
</g><g id="svg_15">
</g><g id="svg_16">
</g><g id="svg_17">
</g></g></svg>