<svg xmlns="http://www.w3.org/2000/svg" xmlns:xlink="http://www.w3.org/1999/xlink" version="1.1" style="" xml:space="preserve" width="297.77" height="297.77"><rect id="backgroundrect" width="100%" height="100%" x="0" y="0" fill="none" stroke="none"/>
















<g class="currentLayer" style=""><title>Layer 1</title><g id="svg_1" class="selected" fill="#ffffff" fill-opacity="1">
	<path d="M207.218,255.77h-3.369c2.214-3.337,8.32-14.536-0.712-25.6c-8.9-10.905-25.129-39.546-24.438-64.4h3.519   c4.418,0,7.667-3.582,7.667-8v-1c0-4.418-3.582-8-8-8c4.418,0,8-3.582,8-8v-1c0-4.418-3.249-8-7.667-8h-4.626   c-2.064-21.741,1.078-43.054,5.959-54.666c1.86-4.425,4.118-7.79,6.296-10.334h1.371c4.418,0,7.667-3.582,7.667-8v-1   c0-4.418-3.249-8-7.667-8h-9.8c-1.803-10.896-8.998-19.966-18.755-24.383c1.783-2.607,2.829-5.757,2.829-9.154   C165.492,7.267,158.227,0,149.26,0s-16.234,7.267-16.234,16.232c0,3.385,1.037,6.525,2.809,9.127   c-9.788,4.406-17.01,13.49-18.816,24.41h-10.8c-4.418,0-8.333,3.582-8.333,8v1c0,4.418,3.915,8,8.333,8h2.371   c2.178,2.544,4.436,5.909,6.296,10.334c4.881,11.612,8.023,32.925,5.959,54.666h-4.626c-4.418,0-8.333,3.582-8.333,8v1   c0,4.418,3.582,8,8,8c-4.418,0-8,3.582-8,8v1c0,4.418,3.915,8,8.333,8h3.602c0.692,24.854-15.536,53.495-24.438,64.4   c-9.031,11.063-2.926,22.263-0.712,25.6h-3.452c-4.418,0-8.333,3.582-8.333,8v9c0,4.078,3,7.438,7,7.931v17.069h118V280.7   c4-0.493,7-3.853,7-7.931v-9C214.885,259.352,211.636,255.77,207.218,255.77z" id="svg_2" fill="#ffffff" fill-opacity="1"/>
</g><g id="svg_3">
</g><g id="svg_4">
</g><g id="svg_5">
</g><g id="svg_6">
</g><g id="svg_7">
</g><g id="svg_8">
</g><g id="svg_9">
</g><g id="svg_10">
</g><g id="svg_11">
</g><g id="svg_12">
</g><g id="svg_13">
</g><g id="svg_14">
</g><g id="svg_15">
</g><g id="svg_16">
</g><g id="svg_17">
</g></g></svg>