<svg xmlns="http://www.w3.org/2000/svg" xmlns:xlink="http://www.w3.org/1999/xlink" version="1.1" style="enable-background:new 0 0 297 297;" xml:space="preserve" width="297" height="297"><rect id="backgroundrect" width="100%" height="100%" x="0" y="0" fill="none" stroke="none"/>
















<g class="currentLayer" style=""><title>Layer 1</title><g id="svg_1" class="selected" fill="#ffffff" fill-opacity="1">
	<path d="M223.333,247h-5.926c2.607-3.811,10.798-18.024-0.727-32.248c-13.334-16.46-39.863-65.748-27.324-98.752h0.977   c4.418,0,7.667-3.582,7.667-8v-1c0-4.418-3.249-8-7.667-8h-1.225c10.917-10.466,17.725-25.184,17.725-41.5   c0-31.756-25.744-57.5-57.5-57.5s-57.5,25.744-57.5,57.5c0,16.316,6.808,31.034,17.725,41.5h-2.225c-4.418,0-8.333,3.582-8.333,8v1   c0,4.418,3.915,8,8.333,8h1.979c12.539,33.004-13.99,82.292-27.324,98.752c-11.524,14.224-3.334,28.437-0.727,32.248h-6.928   c-4.418,0-8.333,3.582-8.333,8v18c0,4.418,3.915,8,8.333,8H75v16h148v-16c5,0,8-3.582,8-8v-18C231,250.582,227.751,247,223.333,247   z" id="svg_2" fill="#ffffff" fill-opacity="1"/>
</g><g id="svg_3">
</g><g id="svg_4">
</g><g id="svg_5">
</g><g id="svg_6">
</g><g id="svg_7">
</g><g id="svg_8">
</g><g id="svg_9">
</g><g id="svg_10">
</g><g id="svg_11">
</g><g id="svg_12">
</g><g id="svg_13">
</g><g id="svg_14">
</g><g id="svg_15">
</g><g id="svg_16">
</g><g id="svg_17">
</g></g></svg>